<svg width="32" height="32" viewBox="0 0 32 32" fill="none" xmlns="http://www.w3.org/2000/svg">
<rect width="32" height="32" rx="2" fill="black"/>
<path d="M13.0918 14H13.3886C14.5316 14.0576 15.4283 14.3561 15.9966 14.9715C16.5733 14.354 17.47 14.0535 18.6193 14H18.9034C20.4644 14.1034 21.5052 14.8134 22.545 15.5228C23.2031 15.9718 23.8608 16.4205 24.6498 16.7149C24.9661 16.8558 25.3105 16.9261 25.6581 16.9208C26.1801 16.8652 26.5126 16.3485 26.4453 15.7722C26.3737 15.1547 25.7549 14.6175 25.0645 14.9139C24.9736 14.9549 24.8903 15.0106 24.8182 15.0786C24.8112 15.0848 24.8042 15.0924 24.7968 15.1008C24.7925 15.1057 24.7881 15.1109 24.7835 15.1163C24.7374 15.1704 24.6783 15.2399 24.5719 15.2041C24.4525 15.1068 24.559 14.9671 24.6261 14.8791L24.6372 14.8645C24.7618 14.6478 24.9505 14.4728 25.1784 14.3627C25.4064 14.2525 25.6631 14.2122 25.9149 14.247C27.0999 14.3293 28.1608 15.3461 27.9798 16.8858C27.5756 19.1767 25.4328 19.7942 22.8922 20H22.065C19.8478 19.9118 17.721 19.1166 16.0092 17.7358C14.284 19.1119 12.1503 19.9061 9.92607 20H9.11358C6.55403 19.7798 4.39019 19.1767 4.01342 16.8178C3.87029 15.1382 4.89326 14.3129 6.08042 14.2285C6.3343 14.1932 6.59315 14.2332 6.82354 14.3432C7.05394 14.4533 7.24528 14.6284 7.37283 14.846C7.37781 14.854 7.38314 14.8623 7.38868 14.871C7.44874 14.9651 7.53251 15.0964 7.43808 15.2C7.33244 15.2186 7.27097 15.155 7.22201 15.1044C7.21151 15.0935 7.20147 15.0832 7.19181 15.0744C7.11486 14.996 7.02278 14.9333 6.9209 14.8898C6.81903 14.8464 6.70936 14.8231 6.59823 14.8213C5.78574 14.7925 5.31845 15.6755 5.64261 16.3876C5.70582 16.5261 5.80418 16.6464 5.92833 16.7372C6.05249 16.8279 6.19831 16.8862 6.35196 16.9063C6.69916 16.9084 7.04285 16.8383 7.3602 16.7005C7.64302 16.594 7.91562 16.4631 8.1748 16.3094C8.57645 16.0818 8.95541 15.8293 9.33417 15.577C10.4143 14.8573 11.4929 14.1387 13.0918 14Z" fill="white"/>
</svg>
