<svg viewBox="0 0 370 153" fill="none" xmlns="http://www.w3.org/2000/svg"><path d="M120.04 11.43c7.15-2.43 7.74-11.43.65-11.43-2 0-4.28 1.37-5.89 4.17l-9.64 16.56c-.4.7-.85 1.38-1.37 2-2.47-3.39-1.75-8.45 1.71-10.67l-1.34-1.79c-7.47 4.75-5.28 18.48 7.19 18.48 10.62-.01 15.54-12.75 8.7-17.32Zm-8.8 14.57c-1.8.05-3.56-.38-5.14-1.23a17.7 17.7 0 0 0 1.78-2.53l6.01-10.37 1 .1c8.3 1.75 4.98 14.03-3.65 14.03Zm3.83-16.21 2.88-4.93c2.6-4.48 5.93-1.85 4.14 1.5-1.37 2.57-3.39 3.36-7.02 3.43Z" fill="#fff"/><path d="m259.6 19-.24.27a16.67 16.67 0 0 1-6.5 5c.57-.92 1-1.92 1.46-2.67l3.94-6.74c3.33-5.64-2.05-7.53-5.69-4.28l.72-1.23h-3.56l-5.57 9.65-.24.27a7.64 7.64 0 0 1-5.38 2.63l3.36-5.78c2.16-3.73.17-7.25-3.19-7.25-2.74 0-4.87 1.09-6.92 4.65l-1.75 3-1.46 2.48-.2.22c-2.57 3-5.06 5.34-6.64 5.34-.8 0-1.24-.55-.42-2l5.14-9c1.54-2.7.07-4.65-1.92-4.65-1.54 0-3.19.85-5 2.7l5.68-9.89h-3.56l-9.89 17.28-.2.23a22.02 22.02 0 0 1-4.26 3.87c1.14-3.39.9-8.59 3.09-13.14l-2.68-1.44c-1.47 2-4.7 6.67-7.9 10.43l-.25.27c-2.57 3-5.07 5.34-6.65 5.34-.79 0-1.23-.55-.4-2l3.56-6.23c1.23-2.16.65-3.42-.51-4.82l-2-2.39a1.4 1.4 0 0 1 .05-2l.11-.09-1.85-2c-2 1.81-2.2 3.83-.92 5.47l.3.41c-1.57 2.22-3.7 5.23-6.01 8l-.24.27c-2.57 3-5.86 5.34-8.36 5.34-2.2 0-3.5-1.37-1.86-4.24l.34-.62c2.3 1 6.62.51 9.29-4.1l.51-.89c1.92-3.28.07-5.75-2.84-5.75a7.55 7.55 0 0 0-6.65 4.08l-3.48 6-.21.24a7.58 7.58 0 0 1-5.38 2.63l3.36-5.78a8.55 8.55 0 0 0 1.34-4.09 3 3 0 0 0-2.81-3.18h-.43c-.84.02-1.65.3-2.33.79l4.53-7.83h-3.64l-9.97 17.22-.2.21c-2.57 3-5.06 5.34-6.64 5.34-.8 0-1.24-.55-.41-2l3.56-6.23c1.23-2.16.65-3.42-.51-4.82l-2-2.39a1.39 1.39 0 0 1 .07-2l.14-.11-1.86-2c-2 1.81-2.19 3.83-.92 5.47l.31.41c-1.57 2.22-3.7 5.23-6 8l-.25.27c-2.57 3-5.06 5.34-6.65 5.34-.79 0-1.23-.55-.4-2l5.75-10.06h-2a3.69 3.69 0 0 0-3.77-3.43c-1.92 0-4.58 1.51-6.1 4.11l-5 8.62c-1.52 2.64-.44 5.06 2.43 5.06 1.44 0 3.23-.92 4.94-2.33.17 1.37 1.27 2.33 3.08 2.33 2.95 0 6.34-3.15 9.29-6.57 1.7-2 3-3.76 5.89-7.63l.48.58a1.73 1.73 0 0 1 .2 2l-3.76 6.53c-1.5 2.64-.44 5.06 2.44 5.06 2.06 0 4.34-1.55 6.54-3.65 0 2.43 1.82 3.8 4.12 3.8a7.9 7.9 0 0 0 6.01-3.3 10.34 10.34 0 0 0 5.52-1.4c-.2 2.57 1.68 4.52 4.83 4.52 4 0 8-3.15 11.01-6.57 1.72-2 3-3.76 5.9-7.63l.47.58a1.74 1.74 0 0 1 .21 2l-3.76 6.53c-1.52 2.64-.44 5.06 2.43 5.06 2.88 0 6.34-3.15 9.28-6.57 2-2.33 3.81-4.82 5.07-6.5-1.4 3.7-.65 10.33-4 10.33a2 2 0 0 1-1.69-1.3l-2.17 1.16a3.88 3.88 0 0 0 3.9 2.87c.35 0 .68 0 1-.07h.1a12.62 12.62 0 0 0 5.49-2.36l-1.23 2.12h3.6l5.4-9.41c5.5-6.88 7.92-6 6.38-3.35l-4.63 8c-1.51 2.63-.44 5.06 2.43 5.06 2.08 0 4.36-1.56 6.56-3.67 0 4.54 6.3 5.42 10.17.55h.8a9.7 9.7 0 0 0 3.8-.94l-6.48 11.24h3.6l10.65-18.51c4-5.41 6.48-3.42 5.55-1.81l-5.38 9.31a1.37 1.37 0 0 1-2.57 0l-2 1a3.87 3.87 0 0 0 3.9 2.87h.2c5.19-.1 8.57-3.18 11.48-6.57a2.24 2.24 0 0 0-1.42-1.15Zm-81.12-5c2-3.52 5.69-2.94 3.57.75l-.52.89c-1.7 2.91-4 2.84-5.34 2.36l2.29-4Zm-45.68 5.61c-2.16 3.39-4.29 5-5.76 5-.79 0-1.23-.55-.4-2l5-8.66c1.92-3.32 5.72-2.46 4 .75l-2.84 4.91Zm26.83 4.86a1.32 1.32 0 0 1-1.39-1.37c.05-.66.27-1.3.62-1.85l1.2-2.25a5.24 5.24 0 0 0 2.27 3.69 3.34 3.34 0 0 1-2.7 1.74v.04Zm3.72-3.47a3.85 3.85 0 0 1-1.51-3.22c0-2.53 2.46-6.67 4.48-6.67a1.36 1.36 0 0 1 1.36 1.37v.17a4.25 4.25 0 0 1-.68 2.12l-3.65 6.23Zm73.19-1.78h-.18a2.12 2.12 0 0 0-2.1 2.11c.01.42.13.84.34 1.2v.07c-1.68 2.87-5.75 2.33-3.63-1.37l4.39-7.61c2.5-4.24 5.92-2.57 3.76 1.13l-2.58 4.47Zm-236.54 54.04 5.72-5.72 5.73 5.72-5.73 5.74-5.72-5.74Zm352.53 0 5.73-5.71 5.72 5.72-5.7 5.73-5.75-5.74Z" fill="#fff"/><path d="M46.87 73.48h2.08v-8.32h3.28v-2.09h-5.36v10.41Zm14.91 1.52v-12.68a4.55 4.55 0 0 0-2.56-4.07c.32.62.48 1.3.48 2v12.68a4.47 4.47 0 0 1-1.61 3.51 5.2 5.2 0 0 1 1.66 3.69v14.1a4.62 4.62 0 0 1-4.67 4.56h-13.53v2.08h15.67a4.63 4.63 0 0 0 4.56-4.56v-14.1a5.18 5.18 0 0 0-1.69-3.69 4.43 4.43 0 0 0 1.7-3.52Z" fill="#636466"/><path d="M46.87 91.34h2.08v-8.34h3.28v-2.13h-5.36v10.47Zm33.05 0h2.08v-26.18h3.28v-2.09h-5.35v28.27Z" fill="#636466"/><path d="M92.28 58.25c.32.62.48 1.3.48 2v34a4.62 4.62 0 0 1-4.57 4.56h-11.07c-.7 0-1.38-.17-2-.48a4.56 4.56 0 0 0 4.07 2.56h11.1a4.63 4.63 0 0 0 4.56-4.56v-34a4.54 4.54 0 0 0-2.57-4.08Zm20.71 15.23h2.08v-8.32h3.29v-2.09h-5.37v10.41Zm12.27 9a4.46 4.46 0 0 0 2.6-4.06v-16.1a4.54 4.54 0 0 0-2.58-4.1c.31.62.48 1.3.48 2v16.15a4.45 4.45 0 0 1-2.57 4.07l3.08 18.35h-5.69l.35 2.08h7.4l-3.07-18.39Zm-9.44-1.65h-2.83v17.96h-5.32v2.09h7.4v-17.88h1.1l-.34-2.17Zm29.24 10.47h2.1v-26.14h3.27v-2.09h-5.37v28.23Z" fill="#636466"/><path d="M157.42 58.25c.32.62.48 1.3.48 2v34a4.62 4.62 0 0 1-4.57 4.56h-11.12c-.7 0-1.38-.17-2-.48a4.56 4.56 0 0 0 4.08 2.56h11.1a4.63 4.63 0 0 0 4.57-4.56v-34a4.55 4.55 0 0 0-2.54-4.08Zm20.7 33.09h2.1v-26.18h3.27v-2.09h-5.37v28.27Z" fill="#636466"/><path d="M190.48 58.25c.32.62.48 1.3.48 2v34a4.62 4.62 0 0 1-4.57 4.56h-13.58v2.08h15.66a4.63 4.63 0 0 0 4.57-4.56v-34a4.55 4.55 0 0 0-2.56-4.08Zm21.08-.48v41h-5.32v2.09h7.4v-43.09h-2.08Zm32.93 0v41h-5.9l.58 2.09h7.41v-43.09h-2.09Zm-12.83 22.23v18.79h-5.32v2.09h7.4v-13.69l-2.08-7.19Zm32.32 3h6.12v-2.13h-8.2c-.7 0-1.38-.17-2-.48a4.53 4.53 0 0 0 4.08 2.61Zm2.83 2.73-2.09.48v5.13h2.1v-5.61Zm10.27-27.48c.32.62.48 1.3.48 2v8.75l-5.38 1.24v2.56l7.46-1.73v-8.75a4.55 4.55 0 0 0-2.56-4.07Z" fill="#636466"/><path d="M277.08 76.05c.32.62.48 1.3.48 2v16.2a4.61 4.61 0 0 1-4.57 4.56h-11.1c-.7 0-1.38-.17-2-.48a4.56 4.56 0 0 0 4.07 2.56h11.1a4.63 4.63 0 0 0 4.56-4.56v-16.21a4.54 4.54 0 0 0-2.54-4.07Zm-12.36-13v10.43h2.1v-8.32h3.27v-2.09l-5.37-.02Zm33.73 17.82h-.68v17.92h-5.33v2.09h7.4v-15.53l-1.39-4.48Zm15.17-23.1h-2.75l-6.24 19.41 6.91 21.61h-6l.57 1.84.06.25h7.46l-6.9-21.62 6.9-21.49h-.01Zm17.4 0v41h-5.3v2.09h7.38v-43.09h-2.08Z" fill="#636466"/><path d="M168.16 123.85h1.4c5.44.28 9.71 1.73 12.42 4.72 2.74-3 7-4.46 12.47-4.72h1.36c12.13.82 17.65 9.5 27.34 13.19a11.2 11.2 0 0 0 4.8 1c2.48-.27 4.06-2.78 3.74-5.58-.34-3-3.28-5.61-6.57-4.17-.43.2-.83.47-1.17.8-.25.23-.53.83-1.17.61-.6-.5 0-1.23.3-1.65a6 6 0 0 1 6.09-3c5.64.4 10.68 5.34 9.82 12.82-1.92 11.13-12.12 14.13-24.2 15.13h-3.94a48.43 48.43 0 0 1-28.81-11 49.12 49.12 0 0 1-28.95 11h-3.86c-12.18-1.07-22.48-4-24.27-15.46-.68-8.16 4.19-12.17 9.83-12.58a6.11 6.11 0 0 1 6.15 3c.28.46.8 1.17.31 1.72-.6.11-.9-.37-1.17-.61a4 4 0 0 0-2.82-1.23c-3.87-.14-6.1 4.15-4.55 7.61a4.35 4.35 0 0 0 3.38 2.52 11.7 11.7 0 0 0 4.8-1 24.04 24.04 0 0 0 3.87-1.9c7.36-4.26 13.12-10.31 23.4-11.22Z" fill="#fff"/><path d="m362.19 82.91 5.72-5.72 2.09 2.09-5.73 5.72-2.08-2.09Zm-352.54 0 5.72-5.71 2.1 2.08-5.7 5.72-2.12-2.09Z" fill="#636466"/><path d="M55.73 69a4.43 4.43 0 0 1-1.65 3.48 5.2 5.2 0 0 1 1.66 3.69v14.1a4.62 4.62 0 0 1-4.56 4.56h-15.68v-43.11h15.67a4.6 4.6 0 0 1 4.56 4.56v12.72Zm-7.46-9.89h-5.37v10.41h5.37v-10.41Zm0 17.8h-5.37v10.47h5.37v-10.47Zm35.96-25.19a4.6 4.6 0 0 1 4.56 4.56v34a4.62 4.62 0 0 1-4.56 4.56h-11.12a4.61 4.61 0 0 1-4.57-4.56v-34a4.56 4.56 0 0 1 4.57-4.56h11.12Zm-2.9 7.39h-5.37v28.27h5.37v-28.27Zm33.55 35.72-3-17.92h-2.83v17.92h-7.4v-43.11h15.66a4.54 4.54 0 0 1 4.5 4.56v16.14a4.44 4.44 0 0 1-2.63 4.06l3.08 18.35h-7.38Zm-.49-35.72h-5.36v10.41h5.36v-10.41Zm34.98-7.39a4.59 4.59 0 0 1 4.56 4.56v34a4.62 4.62 0 0 1-4.56 4.56h-11.1a4.61 4.61 0 0 1-4.57-4.56v-34a4.56 4.56 0 0 1 4.5-4.56h11.17Zm-2.9 7.39h-5.38v28.27h5.37v-28.27Zm35.96-7.39a4.6 4.6 0 0 1 4.56 4.56v34a4.62 4.62 0 0 1-4.56 4.56h-15.67v-43.12h15.67Zm-2.9 7.39h-5.37v28.27h5.37v-28.27Zm20.66-7.39h7.4v43.11h-7.4v-43.11Zm40.34 0v43.11h-7.4l-5.42-18.83v18.83h-7.38v-43.11h7.34l5.43 17.67v-17.67h7.43Zm28.5 17.8a4.6 4.6 0 0 1 4.56 4.56v16.2a4.62 4.62 0 0 1-4.56 4.56h-11.1a4.61 4.61 0 0 1-4.55-4.56v-8.87l7.4-1.72v7.7h5.37v-10.48h-8.2a4.56 4.56 0 0 1-4.57-4.54v-16.09a4.56 4.56 0 0 1 4.55-4.56h11.12a4.6 4.6 0 0 1 4.56 4.56v8.72l-7.46 1.73v-7.62h-5.36v10.41h8.24Zm31.65 3.7 6.9 21.62h-7.46l-.06-.25-5.54-17.67h-.69v17.91h-7.4v-43.11h7.4v17.8h.62l5.67-17.8h7.53l-6.97 21.5Zm19.02-21.5h7.4v43.11h-7.4v-43.11Z" fill="#fff"/></svg>