<svg viewBox="0 0 370 100" fill="none" xmlns="http://www.w3.org/2000/svg"><path d="M120.03 11.33c7.16-2.4 7.75-11.33.65-11.33-1.94 0-4.27 1.36-5.89 4.13l-9.63 16.42c-.4.7-.85 1.36-1.37 1.98-2.47-3.35-1.75-8.38 1.71-10.58l-1.34-1.77c-7.47 4.7-5.28 18.3 7.19 18.3 10.6 0 15.54-12.62 8.68-17.15Zm-8.8 14.44c-1.8.04-3.56-.38-5.14-1.22.66-.79 1.26-1.62 1.78-2.5l6.01-10.28 1 .1c8.3 1.73 4.98 13.9-3.65 13.9Zm3.83-16.07 2.89-4.88c2.6-4.44 5.93-1.84 4.14 1.48-1.37 2.55-3.39 3.33-7.03 3.4Z" fill="#fff"/><path d="m259.6 18.83-.24.28a16.83 16.83 0 0 1-6.51 4.96c.58-.92 1-1.9 1.47-2.65l3.94-6.68c3.32-5.6-2.06-7.45-5.7-4.23l.73-1.22h-3.57l-5.56 9.54-.25.27a7.68 7.68 0 0 1-5.37 2.6l3.35-5.72c2.16-3.7.17-7.19-3.18-7.19-2.75 0-4.87 1.08-6.92 4.61l-1.75 3.02-1.47 2.41-.19.22c-2.57 2.97-5.06 5.3-6.65 5.3-.79 0-1.23-.55-.4-1.94l5.13-8.92c1.54-2.68.07-4.6-1.91-4.6-1.55 0-3.2.83-5.01 2.67l5.69-9.8h-3.57l-9.9 17.07-.2.23a22.01 22.01 0 0 1-4.25 3.84c1.13-3.36.9-8.52 3.09-13.03l-2.68-1.43c-1.47 1.99-4.69 6.62-7.91 10.35l-.24.27c-2.56 2.97-5.07 5.3-6.64 5.3-.8 0-1.24-.55-.42-1.94l3.56-6.17c1.24-2.15.66-3.4-.5-4.78l-2-2.38a1.37 1.37 0 0 1-.34-1.03 1.37 1.37 0 0 1 .53-.95l-1.85-1.99c-2 1.8-2.2 3.8-.92 5.43l.3.35c-1.58 2.21-3.7 5.2-6.01 7.93l-.24.27c-2.58 2.97-5.86 5.3-8.36 5.3-2.2 0-3.5-1.36-1.86-4.21l.34-.61c2.3.99 6.62.5 9.3-4.08l.5-.88c1.92-3.25.08-5.69-2.84-5.69a7.6 7.6 0 0 0-6.68 4.06l-3.48 5.84-.21.24a7.63 7.63 0 0 1-5.39 2.62l3.36-5.74a8.49 8.49 0 0 0 1.34-4.06 2.95 2.95 0 0 0-1.96-2.97 4.17 4.17 0 0 0-3.6.6l4.54-7.77h-3.64l-10 17.08-.18.21c-2.57 2.97-5.07 5.3-6.64 5.3-.8 0-1.24-.55-.42-1.94l3.57-6.17c1.23-2.14.65-3.4-.52-4.78l-2-2.38a1.36 1.36 0 0 1 .2-1.98l-1.85-1.99c-2 1.8-2.19 3.8-.93 5.44l.31.4c-1.57 2.2-3.7 5.19-6 7.93l-.25.27c-2.56 2.97-5.06 5.3-6.64 5.3-.79 0-1.24-.55-.42-1.94l5.76-9.97h-2a3.62 3.62 0 0 0-2.33-3.35 3.73 3.73 0 0 0-1.43-.26c-1.9 0-4.58 1.49-6.1 4.06l-5 8.55c-1.52 2.62-.44 5.02 2.43 5.02 1.43 0 3.22-.92 4.94-2.3.17 1.35 1.26 2.3 3.08 2.3 2.95 0 6.33-3.12 9.29-6.5 1.7-2 3-3.74 5.88-7.57l.49.57a1.72 1.72 0 0 1 .2 1.99l-3.77 6.47c-1.5 2.62-.44 5.02 2.43 5.02 2.07 0 4.35-1.53 6.55-3.61 0 2.4 1.82 3.76 4.11 3.76a7.96 7.96 0 0 0 6.09-3.28 10.53 10.53 0 0 0 5.52-1.39c-.2 2.55 1.68 4.48 4.82 4.48 4.01 0 8.02-3.12 11.02-6.5 1.71-1.99 3-3.73 5.9-7.57l.48.57a1.74 1.74 0 0 1 .2 1.99l-3.76 6.48c-1.52 2.6-.46 5.01 2.43 5.01 2.88 0 6.34-3.12 9.28-6.5 2-2.3 3.8-4.79 5.07-6.45-1.4 3.67-.65 10.24-4 10.24a2.02 2.02 0 0 1-1.68-1.29l-2.23 1.16a3.84 3.84 0 0 0 3.9 2.84c.34 0 .67-.02 1-.06h.12a12.71 12.71 0 0 0 5.46-2.34l-1.22 2.1h3.6l5.34-9.32c5.47-6.8 7.9-5.95 6.36-3.32l-4.62 7.93c-1.5 2.6-.44 5.01 2.43 5.01 2.07 0 4.37-1.53 6.56-3.62 0 4.49 6.31 5.37 10.17.54h.79a10.1 10.1 0 0 0 3.81-.93l-6.49 11.24h3.6l10.65-18.35c4.01-5.36 6.48-3.39 5.55-1.8l-5.38 9.23c-.58.99-1.9 1.33-2.56 0l-2 .99a3.85 3.85 0 0 0 3.9 2.84h.2c5.18-.1 8.58-3.15 11.48-6.5a2.25 2.25 0 0 0-1.35-1.28Zm-81.12-4.95c2.05-3.5 5.69-2.92 3.56.74l-.52.88c-1.71 2.89-4 2.82-5.34 2.34l2.3-3.96Zm-45.68 5.56c-2.15 3.36-4.28 4.95-5.75 4.95-.79 0-1.24-.53-.42-1.92l5-8.58c1.92-3.3 5.73-2.44 4.02.74l-2.85 4.8Zm26.83 4.81a1.35 1.35 0 0 1-1.34-.81c-.07-.17-.1-.36-.1-.54.05-.66.26-1.29.62-1.84l1.25-2.23a5.15 5.15 0 0 0 2.26 3.67 3.34 3.34 0 0 1-2.71 1.71l.02.04Zm3.72-3.44a3.82 3.82 0 0 1-1.52-3.18c0-2.51 2.48-6.62 4.5-6.62a1.37 1.37 0 0 1 1.29.96c.05.19.07.38.04.57a4.26 4.26 0 0 1-.68 2.11l-3.63 6.16Zm73.18-1.76h-.18a2.08 2.08 0 0 0-2.1 2.1c.01.42.13.83.35 1.2v.06c-1.68 2.85-5.76 2.31-3.63-1.36l2.71-4.65 1.71-2.87c2.5-4.21 5.93-2.55 3.77 1.12l-2.63 4.4Zm-230.81 47.91-5.72 5.66 5.72 5.67 5.72-5.66-5.72-5.67Zm352.52-.01-5.73 5.67 5.72 5.66 5.73-5.66-5.72-5.67Z" fill="#fff"/><path d="M46.87 72.83h2.09v-8.24h3.27v-2.08h-5.36v10.32Zm14.92 1.51v-12.57a4.5 4.5 0 0 0-2.58-4.03c.32.61.48 1.29.48 1.98v12.57a4.38 4.38 0 0 1-1.66 3.48 5.11 5.11 0 0 1 1.66 3.65v13.99a4.56 4.56 0 0 1-1.35 3.17c-.85.84-2 1.32-3.2 1.34h-13.58v2.07h15.66c1.2-.02 2.35-.5 3.2-1.35a4.58 4.58 0 0 0 1.37-3.17v-13.99a5.12 5.12 0 0 0-1.7-3.65 4.47 4.47 0 0 0 1.7-3.5Z" fill="#636466"/><path d="M46.87 90.53h2.09v-8.31h3.27v-2.06h-5.36v10.37Zm33.06 0h2.09v-25.94h3.27v-2.08h-5.36v28.02Z" fill="#636466"/><path d="M92.28 57.74c.31.61.47 1.29.48 1.98v33.7a4.57 4.57 0 0 1-1.36 3.17c-.85.85-2 1.33-3.2 1.35h-11.08c-.7 0-1.38-.17-2-.48a4.52 4.52 0 0 0 4.07 2.54h11.09c1.2-.02 2.35-.5 3.2-1.34a4.56 4.56 0 0 0 1.36-3.17v-33.7a4.52 4.52 0 0 0-2.56-4.05Zm20.72 15.09h2.08v-8.24h3.28v-2.08h-5.37v10.32Zm12.25 8.97a4.47 4.47 0 0 0 2.6-4.03v-16a4.48 4.48 0 0 0-2.58-4.05c.31.61.48 1.29.48 1.98v16a4.4 4.4 0 0 1-2.56 4.03l3.08 18.19h-5.69l.35 2.06h7.4l-3.08-18.19Zm-9.42-1.64h-2.84v17.76h-5.32v2.07h7.4v-17.77h1.1l-.34-2.06Zm29.23 10.37h2.1v-25.94h3.27v-2.08h-5.37v28.02Z" fill="#636466"/><path d="M157.4 57.74c.32.61.49 1.29.49 1.98v33.7a4.55 4.55 0 0 1-1.35 3.17c-.85.85-2 1.33-3.2 1.35h-11.13c-.7 0-1.38-.16-2-.48a4.52 4.52 0 0 0 4.07 2.54h11.1a4.7 4.7 0 0 0 3.21-1.34 4.57 4.57 0 0 0 1.36-3.17v-33.7a4.5 4.5 0 0 0-2.54-4.05Zm20.72 32.79h2.1v-25.94h3.27v-2.08h-5.37v28.02Z" fill="#636466"/><path d="M190.47 57.74c.31.61.47 1.29.48 1.98v33.7a4.56 4.56 0 0 1-1.35 3.17c-.85.85-2 1.33-3.21 1.35h-13.58v2.06h15.66c1.2-.02 2.36-.5 3.2-1.34a4.57 4.57 0 0 0 1.37-3.17v-33.7a4.5 4.5 0 0 0-2.57-4.05Zm21.09-.48v40.66h-5.32v2.07h7.4v-42.73h-2.08Zm32.93 0v40.66h-5.91l.59 2.07h7.4v-42.73h-2.08Zm-12.83 21.98v18.68h-5.31v2.07h7.4v-13.57l-2.1-7.18Zm32.3 3.03h6.12v-2.11h-8.2c-.7 0-1.38-.17-2-.48a4.5 4.5 0 0 0 4.08 2.59Zm2.84 2.69-2.08.49v5.08h2.09v-5.57Zm10.26-27.22c.32.61.48 1.29.49 1.98v8.67l-5.38 1.24v2.54l7.46-1.7v-8.7a4.48 4.48 0 0 0-2.57-4.03Z" fill="#636466"/><path d="M277.06 75.38c.32.61.48 1.3.49 1.98v16.04a4.55 4.55 0 0 1-1.36 3.17c-.85.85-2 1.33-3.2 1.35h-11.1a4.5 4.5 0 0 1-2.01-.48 4.55 4.55 0 0 0 4.07 2.54h11.11c1.2-.02 2.36-.5 3.2-1.34a4.57 4.57 0 0 0 1.37-3.17v-16.06a4.5 4.5 0 0 0-2.57-4.03Zm-12.34-12.87v10.32h2.09v-8.24h3.27v-2.08h-5.36Zm33.74 17.65h-.69v17.76h-5.3v2.07h7.4v-15.4l-1.41-4.43Zm15.16-22.9h-2.76l-6.24 19.24 6.92 21.42h-6.02l.58 1.82.06.25h7.46l-6.91-21.43 6.9-21.3Zm17.4 0v40.66h-5.3v2.07h7.39v-42.73h-2.09Zm36.89 19.26-5.72 5.66 2.09 2.07 5.72-5.66-2.09-2.07Zm-352.51.03-5.71 5.67 2.08 2.07 5.73-5.67-2.1-2.07Z" fill="#636466"/><path d="M55.74 68.4a4.4 4.4 0 0 1-1.66 3.44 5.12 5.12 0 0 1 1.68 3.66v13.98a4.57 4.57 0 0 1-1.36 3.17 4.6 4.6 0 0 1-3.21 1.34h-15.68v-42.73h15.66c1.2.01 2.36.5 3.22 1.34a4.54 4.54 0 0 1 1.35 3.18v12.61Zm-7.47-9.78h-5.36v10.29h5.36v-10.3Zm0 17.64h-5.36v10.35h5.36v-10.35Zm35.96-25c1.2.01 2.36.5 3.22 1.34a4.54 4.54 0 0 1 1.35 3.18v33.7a4.57 4.57 0 0 1-1.37 3.17c-.85.85-2 1.33-3.2 1.34h-11.12a4.52 4.52 0 0 1-4.57-4.51v-33.7a4.47 4.47 0 0 1 2.82-4.17 4.6 4.6 0 0 1 1.75-.35h11.12Zm-2.9 7.33h-5.36v28.02h5.36v-28.02Zm33.55 35.41-3-17.77h-2.83v17.76h-7.4v-42.73h15.66c1.2.02 2.35.5 3.2 1.35a4.49 4.49 0 0 1 1.3 3.17v16a4.4 4.4 0 0 1-2.63 4.03l3.08 18.18h-7.38Zm-.49-35.41h-5.36v10.32h5.36v-10.32Zm34.98-7.33c1.2.01 2.36.5 3.21 1.34a4.53 4.53 0 0 1 1.35 3.18v33.7a4.56 4.56 0 0 1-1.36 3.17c-.85.85-2 1.33-3.2 1.34h-11.11a4.6 4.6 0 0 1-3.21-1.33 4.52 4.52 0 0 1-1.35-3.18v-33.7a4.48 4.48 0 0 1 2.81-4.17 4.6 4.6 0 0 1 1.75-.35h11.1Zm-2.9 7.33h-5.37v28.02h5.36v-28.02Zm35.95-7.33c1.21.01 2.37.5 3.22 1.34a4.53 4.53 0 0 1 1.35 3.18v33.7a4.57 4.57 0 0 1-1.36 3.17c-.85.85-2 1.33-3.2 1.34h-15.67v-42.73h15.66Zm-2.9 7.33h-5.36v28.02h5.36v-28.02Zm20.68-7.33h7.4v42.73h-7.4v-42.73Zm40.32 0v42.73h-7.4l-5.43-18.66v18.66h-7.36v-42.73h7.34l5.43 17.53v-17.53h7.42Zm28.5 17.64a4.57 4.57 0 0 1 4.56 4.53v16.05a4.56 4.56 0 0 1-1.35 3.17c-.86.84-2 1.33-3.2 1.34h-11.11a4.62 4.62 0 0 1-3.2-1.34 4.53 4.53 0 0 1-1.34-3.17v-8.79l7.4-1.71v7.63h5.37v-10.38h-8.2a4.6 4.6 0 0 1-4.23-2.79 4.48 4.48 0 0 1-.34-1.73v-15.93c0-1.2.48-2.34 1.34-3.2a4.59 4.59 0 0 1 3.23-1.32h11.1c1.2.01 2.36.5 3.22 1.34a4.53 4.53 0 0 1 1.34 3.18v8.65l-7.46 1.7v-7.54h-5.36v10.32h8.23Zm31.64 3.67 6.9 21.42h-7.45l-.06-.23-5.56-17.53h-.68v17.76h-7.38v-42.73h7.39v17.65h.56l5.68-17.65h7.52l-6.92 21.31Zm19-21.31h7.4v42.73h-7.4v-42.73Z" fill="#fff"/></svg>