<svg viewBox="0 0 226 30" fill="none" xmlns="http://www.w3.org/2000/svg"><path d="m3.5 9.67-3.5 3.49 3.5 3.49 3.49-3.5-3.5-3.48Zm215.3.01-3.49 3.49 3.5 3.49 3.5-3.49-3.5-3.49Z" fill="#fff"/><path d="M28.62 13.28h1.29v-5.08h2v-1.27h-3.29v6.35Zm9.11.93v-7.74a2.8 2.8 0 0 0-1.56-2.48c.19.38.29.8.29 1.21v7.78a2.7 2.7 0 0 1-1 2.14 3.2 3.2 0 0 1 1 2.26v8.59a2.82 2.82 0 0 1-2.78 2.78h-8.3v1.21h9.57a2.84 2.84 0 0 0 2.78-2.79v-8.55a3.18 3.18 0 0 0-1-2.26 2.73 2.73 0 0 0 1-2.15Z" fill="#636466"/><path d="M28.62 24.18h1.29v-5.12h2v-1.27h-3.29v6.39Zm20.2 0h1.27v-15.98h2v-1.27h-3.27v17.25Z" fill="#636466"/><path d="M56.36 4c.2.37.3.78.3 1.2v20.77a2.82 2.82 0 0 1-2.8 2.78h-6.77c-.43 0-.84-.1-1.22-.3a2.79 2.79 0 0 0 2.49 1.51h6.78a2.84 2.84 0 0 0 2.79-2.79v-20.7a2.78 2.78 0 0 0-1.57-2.48Zm12.64 9.28h1.29v-5.08h2v-1.27h-3.28v6.35Zm7.5 5.52a2.72 2.72 0 0 0 1.56-2.48v-9.85a2.8 2.8 0 0 0-1.55-2.48c.19.39.29.8.3 1.23v9.86a2.71 2.71 0 0 1-1.59 2.48l1.9 11.2h-3.47l.2 1.2h4.53l-1.88-11.16Zm-5.75-1.01h-1.74v10.94h-3.25v1.27h4.53v-10.94h.67l-.21-1.27Zm17.85 6.39h1.27v-15.98h2v-1.27h-3.27v17.25Z" fill="#636466"/><path d="M96.14 4c.19.37.29.78.3 1.2v20.77a2.82 2.82 0 0 1-2.8 2.78h-6.77c-.43 0-.84-.1-1.22-.3a2.79 2.79 0 0 0 2.49 1.51h6.77a2.84 2.84 0 0 0 2.8-2.79v-20.7a2.78 2.78 0 0 0-1.57-2.48Zm12.64 20.18h1.29v-15.98h2v-1.27h-3.28v17.25Z" fill="#636466"/><path d="M116.33 4c.19.37.29.78.3 1.2v20.77a2.82 2.82 0 0 1-2.8 2.78h-8.29v1.21h9.55a2.82 2.82 0 0 0 2.78-2.79v-20.7a2.8 2.8 0 0 0-1.54-2.48Zm12.87-.31v25.04h-3.24v1.27h4.52v-26.31h-1.28Zm20.13 0v25.04h-3.63l.37 1.27h4.53v-26.31h-1.27Zm-7.84 13.54v11.5h-3.25v1.27h4.52v-8.35l-1.27-4.42Zm19.73 1.83h3.74v-1.27h-5c-.43 0-.85-.1-1.23-.3a2.76 2.76 0 0 0 2.49 1.57Zm1.73 1.69-1.27.3v3.13h1.27v-3.43Zm6.27-16.75c.19.37.29.78.3 1.2v5.35l-3.3.75v1.57l4.56-1.06v-5.34a2.78 2.78 0 0 0-1.56-2.48Z" fill="#636466"/><path d="M169.22 14.85c.19.38.29.79.3 1.2v9.92a2.82 2.82 0 0 1-2.8 2.78h-6.78c-.42 0-.83-.1-1.2-.3a2.77 2.77 0 0 0 2.47 1.51h6.79a2.84 2.84 0 0 0 2.78-2.79v-9.83a2.78 2.78 0 0 0-1.56-2.49Zm-7.54-7.92v6.35h1.27v-5.08h2v-1.27h-3.27Zm20.6 10.86h-.4v10.94h-3.26v1.27h4.52v-9.48l-.86-2.73Zm9.26-14.1h-1.68l-3.8 11.84 4.2 13.2h-3.67l.35 1.12.05.15h4.55l-4.22-13.2 4.22-13.11Zm10.64 0v25.04h-3.26v1.27h4.53v-26.31h-1.27Zm22.55 11.91-3.5 3.48 1.27 1.27 3.5-3.49-1.27-1.27Zm-215.31-.03-3.5 3.49 1.28 1.27 3.5-3.49-1.28-1.27Z" fill="#636466"/><path d="M34.03 10.53a2.7 2.7 0 0 1-1 2.13 3.2 3.2 0 0 1 1 2.26v8.6a2.82 2.82 0 0 1-2.78 2.8h-9.56v-26.32h9.57a2.8 2.8 0 0 1 2.77 2.79v7.74Zm-4.55-6h-3.28v6.36h3.29l-.01-6.36Zm0 10.86h-3.28v6.4h3.29l-.01-6.4Zm21.96-15.39a2.8 2.8 0 0 1 2.8 2.79v20.74a2.82 2.82 0 0 1-2.8 2.78h-6.77a2.8 2.8 0 0 1-2.8-2.78v-20.74a2.77 2.77 0 0 1 2.8-2.79h6.77Zm-1.77 4.51h-3.27v17.25h3.27v-17.25Zm20.5 21.8-1.85-10.98h-1.74v10.98h-4.53v-26.31h9.57a2.78 2.78 0 0 1 2.75 2.79v9.84a2.72 2.72 0 0 1-1.6 2.48l1.9 11.2h-4.5Zm-.3-21.8h-3.29v6.36h3.29v-6.36Zm21.35-4.51a2.8 2.8 0 0 1 2.8 2.79v20.74a2.82 2.82 0 0 1-2.8 2.78h-6.77a2.8 2.8 0 0 1-2.8-2.78v-20.74a2.77 2.77 0 0 1 2.8-2.79h6.77Zm-1.77 4.51h-3.27v17.25h3.27v-17.25Zm21.97-4.51a2.8 2.8 0 0 1 2.78 2.79v20.74a2.82 2.82 0 0 1-2.78 2.78h-9.57v-26.31h9.57Zm-1.77 4.51h-3.29v17.25h3.29v-17.25Zm12.62-4.51h4.52v26.31h-4.52v-26.31Zm24.63 0v26.31h-4.52l-3.27-11.5v11.5h-4.53v-26.31h4.49l3.31 10.79v-10.79h4.51Zm17.4 10.87a2.8 2.8 0 0 1 2.83 2.77v9.89a2.83 2.83 0 0 1-2.78 2.78h-6.83a2.8 2.8 0 0 1-2.78-2.78v-5.41l4.51-1.05v4.7h3.29v-6.4h-5a2.78 2.78 0 0 1-2.79-2.78v-9.8a2.79 2.79 0 0 1 2.77-2.79h6.79a2.81 2.81 0 0 1 2.82 2.79v5.33l-4.55 1v-4.6h-3.29v6.35h5.02Zm19.33 2.25 4.22 13.2h-4.56v-.15l-3.4-10.8h-.4v10.98h-4.52v-26.35h4.52v10.87h.34l3.42-10.87h4.6l-4.22 13.12Zm11.6-13.12h4.52v26.31h-4.52v-26.31Z" fill="#fff"/></svg>