<svg viewBox="0 0 23 21" fill="none" xmlns="http://www.w3.org/2000/svg"><path d="M22.73 0h-.1c-1.05 3.27-1.32 7.25-4.17 8.76-.54-1.42-1.85-2.08-3.33-2.7a9.79 9.79 0 0 0-2.96-1.1c-.23-.04-.47 0-.68.12-.2-.11-.43-.16-.66-.13-1.04.22-2.04.6-2.95 1.1-1.5.63-2.8 1.29-3.33 2.71-2.87-1.51-3.14-5.5-4.17-8.76h-.1a5.9 5.9 0 0 0-.28.99c.05 4.05.33 8.08.85 12.1.56 2.67 2.72 4.6 4.83 5.86 1.47.85 3.8 2.05 5.78 2.05 1.98 0 4.38-1.2 5.86-2.05 2.08-1.27 4.26-3.19 4.83-5.86.52-4.02.8-8.05.85-12.1a5.9 5.9 0 0 0-.27-.99Zm-6.25 11.88c-.06.36-.24.7-.5.96a1.9 1.9 0 0 1-1 .52c-1.34.07-2.02-1.87-3.52-1.87-1.5.02-2.17 1.94-3.5 1.87a1.9 1.9 0 0 1-.99-.52 1.8 1.8 0 0 1-.49-.96 3.05 3.05 0 0 1 .75-2.4c.5-.45 1.26-.4 2.09-.5a3.95 3.95 0 0 0 2.14-.8c.62.48 1.38.77 2.17.83.83.1 1.6.05 2.09.5a3.17 3.17 0 0 1 .79 2.37h-.03Z" fill="#826550"/></svg>